<?xml version="1.0" encoding="UTF-8" standalone="no"?>
<!-- Created with Inkscape (http://www.inkscape.org/) -->

<svg
   version="1.1"
   id="svg256"
   width="101.55474"
   height="136.30505"
   viewBox="0 0 101.55474 136.30505"
   sodipodi:docname="right-hand.png"
   inkscape:export-filename="right-hand.svg"
   inkscape:export-xdpi="96"
   inkscape:export-ydpi="96"
   xmlns:inkscape="http://www.inkscape.org/namespaces/inkscape"
   xmlns:sodipodi="http://sodipodi.sourceforge.net/DTD/sodipodi-0.dtd"
   xmlns="http://www.w3.org/2000/svg"
   xmlns:svg="http://www.w3.org/2000/svg">
  <defs
     id="defs260" />
  <sodipodi:namedview
     id="namedview258"
     pagecolor="#ffffff"
     bordercolor="#000000"
     borderopacity="0.25"
     inkscape:showpageshadow="false"
     inkscape:pageopacity="0"
     inkscape:pagecheckerboard="true"
     inkscape:deskcolor="#d1d1d1"
     showgrid="false"
     showborder="false"
     borderlayer="false" />
  <path
     style="fill:none;stroke:#494949;stroke-width:0.999495;stroke-linecap:round;stroke-linejoin:round;stroke-dasharray:none"
     d="m 55.894294,135.33972 c 0.045,-16.28019 9.84908,-24.3886 21.62993,-37.28802 2.96017,-3.241235 3.52495,-6.684535 6.14898,-10.200545 3.10147,-4.15572 7.64263,-9.23847 10.09495,-13.80809 1.883333,-3.50949 4.964145,-4.10255 7.286846,-7.14276 l -0.46557,-0.93115 c -2.146421,-3.91082 -5.748026,-4.03084 -9.551726,-2.67276 -7.08296,2.52947 -10.66578,5.61038 -16.52042,13.80325 -2.01356,2.81735 -8.6857,3.92751 -10.80524,1.7784 -4.08657,-4.1437 -3.61085,-10.66342 -4.05329,-16.1679 -1.22316,-15.21823 2.8357,-30.3342 0.35169,-45.62628 -1.2332,-7.5923201 -6.21884,-11.03304 -10.09356,-6.4888 -2.21921,2.60291 -0.81717,8.72248 -1.0481,12.07569 -0.24442,3.55457 -0.65227,7.18018 -1.15881,10.70821 -0.87855,6.11751 -0.8365,17.94927 -3.21326,18.84524 -2.06976,-0.60448 -0.95735,-9.01273 -1.21482,-12.79278 -0.62387,-9.16827 -1.86416,-18.30726 -2.71663,-27.46887 -0.30913,-3.3214101 -0.88551,-8.36239 -3.8084,-10.36262 -4.43924,-3.03833 -7.24285,0.5542 -7.39331,6.6380199 -0.2137,8.5977601 -0.004,17.4568901 -0.007,26.0721601 -10e-4,3.85942 1.59599,17.01135 0.44607,17.60192 -1.08764,-0.23102 -2.25342,-12.97374 -2.70177,-16.67077 -0.83943,-6.92379 -1.35901,-14.62611 -2.55321,-21.41642 -0.55264,-3.14201 -3.05231,-6.0071201 -6.34484,-4.3873801 -3.92107,1.9290601 -3.85729,8.9820001 -3.41174,12.7677101 0.98144,8.34776 0.67788,16.78563 1.86882,25.14101 0.5559,3.90059 1.66877,10.5775 0.59175,11.17379 -1.22072,-0.14551 -2.63702,-8.5512 -4.32193,-12.5705 -1.71471,-4.09087 -2.35814,-8.78343 -3.9690197,-13.03609 -0.94279,-2.48984 -2.3781498,-7.59402 -6.0915848,-5.57217 -2.49639996,1.35933 -2.53596996,4.99594 -2.24545996,7.43447 0.80869996,6.78077 2.45543996,13.40854 4.11661496,20.0197 3.0201798,12.02344 3.0495098,24.52226 5.2595898,36.78036 2.7301297,15.141875 7.7173597,28.576485 7.7173597,44.229555"
     id="path370"
     sodipodi:nodetypes="cscccccccccccccccccccccccccccccccc" />
  <path
     style="fill:none;stroke:#494949;stroke-width:0.999495;stroke-linecap:round;stroke-linejoin:round;stroke-dasharray:none"
     d="m 55.894294,135.33972 c 0.045,-16.28019 9.84908,-24.3886 21.62993,-37.28802 2.96017,-3.241235 3.52495,-6.684535 6.14898,-10.200545 3.10147,-4.15572 7.64263,-9.23847 10.09495,-13.80809 1.883333,-3.50949 4.964145,-4.10255 7.286846,-7.14276 l -0.46557,-0.93115 c -2.146421,-3.91082 -5.748026,-4.03084 -9.551726,-2.67276 -7.08296,2.52947 -10.66578,5.61038 -16.52042,13.80325 -2.01356,2.81735 -8.6857,3.92751 -10.80524,1.7784 -4.08657,-4.1437 -3.61085,-10.66342 -4.05329,-16.1679 -1.22316,-15.21823 2.8357,-30.3342 0.35169,-45.62628 -1.2332,-7.5923201 -6.21884,-11.03304 -10.09356,-6.4888 -2.21921,2.60291 -0.81717,8.72248 -1.0481,12.07569 -0.24442,3.55457 -0.65227,7.18018 -1.15881,10.70821 -0.87855,6.11751 -0.8365,17.94927 -3.21326,18.84524 -2.06976,-0.60448 -0.95735,-9.01273 -1.21482,-12.79278 -0.62387,-9.16827 -1.86416,-18.30726 -2.71663,-27.46887 -0.30913,-3.3214101 -0.88551,-8.36239 -3.8084,-10.36262 -4.43924,-3.03833 -7.24285,0.5542 -7.39331,6.6380199 -0.2137,8.5977601 -0.004,17.4568901 -0.007,26.0721601 -10e-4,3.85942 1.59599,17.01135 0.44607,17.60192 -1.08764,-0.23102 -2.25342,-12.97374 -2.70177,-16.67077 -0.83943,-6.92379 -1.35901,-14.62611 -2.55321,-21.41642 -0.55264,-3.14201 -3.05231,-6.0071201 -6.34484,-4.3873801 -3.92107,1.9290601 -3.85729,8.9820001 -3.41174,12.7677101 0.98144,8.34776 0.67788,16.78563 1.86882,25.14101 0.5559,3.90059 1.66877,10.5775 0.59175,11.17379 -1.22072,-0.14551 -2.63702,-8.5512 -4.32193,-12.5705 -1.71471,-4.09087 -2.35814,-8.78343 -3.9690197,-13.03609 -0.94279,-2.48984 -2.3781498,-7.59402 -6.0915848,-5.57217 -2.49639996,1.35933 -2.53596996,4.99594 -2.24545996,7.43447 0.80869996,6.78077 2.45543996,13.40854 4.11661496,20.0197 3.0201798,12.02344 3.0495098,24.52226 5.2595898,36.78036 2.7301297,15.141875 7.7173597,28.576485 7.7173597,44.229555"
     id="path6399"
     sodipodi:nodetypes="cscccccccccccccccccccccccccccccccc" />
</svg>
