<?xml version="1.0" encoding="UTF-8" standalone="no"?>
<!-- Created with Inkscape (http://www.inkscape.org/) -->

<svg
   version="1.1"
   id="svg256"
   width="106.38618"
   height="141.13435"
   viewBox="0 0 106.38618 141.13435"
   sodipodi:docname="right-hand.png"
   inkscape:export-filename="right-hand.svg"
   inkscape:export-xdpi="96"
   inkscape:export-ydpi="96"
   xmlns:inkscape="http://www.inkscape.org/namespaces/inkscape"
   xmlns:sodipodi="http://sodipodi.sourceforge.net/DTD/sodipodi-0.dtd"
   xmlns="http://www.w3.org/2000/svg"
   xmlns:svg="http://www.w3.org/2000/svg">
  <defs
     id="defs260">
    <filter
       inkscape:collect="always"
       style="color-interpolation-filters:sRGB"
       id="filter1854"
       x="-0.028983133"
       y="-0.021539411"
       width="1.0579988"
       height="1.0430788">
      <feGaussianBlur
         inkscape:collect="always"
         stdDeviation="0.58994719"
         id="feGaussianBlur1856" />
    </filter>
  </defs>
  <sodipodi:namedview
     id="namedview258"
     pagecolor="#ffffff"
     bordercolor="#000000"
     borderopacity="0.25"
     inkscape:showpageshadow="false"
     inkscape:pageopacity="0"
     inkscape:pagecheckerboard="true"
     inkscape:deskcolor="#d1d1d1"
     showgrid="false"
     showborder="false"
     borderlayer="false" />
  <path
     style="mix-blend-mode:normal;fill:none;stroke:#0d6efd;stroke-width:3;stroke-linecap:round;stroke-linejoin:round;stroke-dasharray:none;stroke-opacity:0.368293;filter:url(#filter1854)"
     d="m 48.045615,137.82398 c -0.045,-16.28842 -9.85405,-24.40093 -21.64085,-37.30686 -2.96167,-3.242875 -3.52674,-6.687915 -6.15209,-10.205705 -3.10304,-4.15782 -7.64649,-9.24314 -10.10005,-13.81506 -1.8842898,-3.51127 -4.9666598,-4.10463 -7.2905298,-7.14637 l 0.4658,-0.93162 c 2.14751,-3.9128 5.75094,-4.03288 9.5565598,-2.67411 7.08654,2.53074 10.67117,5.61321 16.52877,13.81022 2.01457,2.81877 8.69008,3.92949 10.81069,1.7793 4.08864,-4.14579 3.61268,-10.66881 4.05534,-16.17607 1.22378,-15.22592 -2.83713,-30.34953 -0.35187,-45.64933 1.23383,-7.59616 6.22199,-11.0386199 10.09865,-6.49208 2.22034,2.60422 0.81759,8.72689 1.04863,12.08179 0.24455,3.55637 0.6526,7.18381 1.1594,10.71362 0.87899,6.1206 0.83692,17.95834 3.21488,18.85476 2.07081,-0.60478 0.95784,-9.01728 1.21544,-12.79924 0.62418,-9.1729 1.8651,-18.31651 2.718,-27.48275 0.30929,-3.32309 0.88596,-8.3666099 3.81032,-10.3678599 4.44149,-3.03985995 7.24651,0.55448 7.39705,6.6413799 0.21381,8.6021 0.004,17.46571 0.007,26.08533 0.001,3.86137 -1.59679,17.01995 -0.44629,17.61081 1.08819,-0.23113 2.25456,-12.98029 2.70313,-16.67919 0.83986,-6.92729 1.3597,-14.6335 2.5545,-21.42724 0.55292,-3.1436 3.05385,-6.01015 6.34805,-4.3896 3.92305,1.93004 3.85924,8.98654 3.41346,12.77417 -0.98193,8.35197 -0.67822,16.79411 -1.86976,25.15371 -0.55618,3.90256 -1.66962,10.58284 -0.59205,11.17943 1.22133,-0.14558 2.63835,-8.55552 4.32411,-12.57685 1.71558,-4.09293 2.35933,-8.78787 3.97103,-13.04267 0.94326,-2.4911 2.37935,-7.59786 6.094655,-5.57499 2.49767,1.36002 2.53726,4.99846 2.2466,7.43823 -0.80911,6.78419 -2.45668,13.41531 -4.118695,20.02981 -3.02171,12.02952 -3.05105,24.53465 -5.26225,36.79894 -2.73151,15.149525 -7.72126,28.590925 -7.72126,44.251905"
     id="path572"
     sodipodi:nodetypes="cscccccccccccccccccccccccccccccccc"
     inkscape:export-filename="path572.svg"
     inkscape:export-xdpi="96"
     inkscape:export-ydpi="96" />
  <path
     style="fill:none;stroke:#494949;stroke-width:0.999495;stroke-linecap:round;stroke-linejoin:round;stroke-dasharray:none"
     d="m 48.048205,137.79003 c -0.045,-16.28019 -9.84908,-24.3886 -21.62993,-37.28802 -2.96017,-3.241235 -3.52495,-6.684535 -6.14898,-10.200545 -3.10147,-4.15572 -7.64263,-9.23847 -10.09495,-13.80809 -1.8833328,-3.50949 -4.9641468,-4.10255 -7.2868428,-7.14276 l 0.465565,-0.93115 c 2.146425,-3.91082 5.748028,-4.03084 9.5517278,-2.67276 7.08296,2.52947 10.66578,5.61038 16.52042,13.80325 2.01356,2.81735 8.6857,3.92751 10.80524,1.7784 4.08657,-4.1437 3.61085,-10.66342 4.05329,-16.1679 1.22316,-15.21823 -2.8357,-30.3342 -0.35169,-45.62628 1.2332,-7.59232 6.21884,-11.0330399 10.09356,-6.4888 2.21921,2.60291 0.81717,8.72248 1.0481,12.07569 0.24442,3.55457 0.65227,7.18018 1.15881,10.70821 0.87855,6.11751 0.8365,17.94927 3.21326,18.84524 2.06976,-0.60448 0.95735,-9.01273 1.21482,-12.79278 0.62387,-9.16827 1.86416,-18.30726 2.71663,-27.46887 0.30913,-3.32141 0.88551,-8.3623899 3.8084,-10.3626199 4.43924,-3.03833 7.24285,0.5542 7.39331,6.6380199 0.2137,8.59776 0.004,17.45689 0.007,26.07216 0.001,3.85942 -1.59599,17.01135 -0.44607,17.60192 1.08764,-0.23102 2.25342,-12.97374 2.70177,-16.67077 0.83943,-6.92379 1.35901,-14.62611 2.55321,-21.41642 0.55264,-3.14201 3.05231,-6.00712 6.34484,-4.38738 3.92107,1.92906 3.85729,8.982 3.41174,12.76771 -0.98144,8.34776 -0.67788,16.78563 -1.86882,25.14101 -0.5559,3.90059 -1.66877,10.5775 -0.59175,11.17379 1.22072,-0.14551 2.63702,-8.5512 4.32193,-12.5705 1.71471,-4.09087 2.35814,-8.78343 3.96902,-13.03609 0.94279,-2.48984 2.37815,-7.59402 6.091585,-5.57217 2.4964,1.35933 2.53597,4.99594 2.24546,7.43447 -0.8087,6.78077 -2.45544,13.40854 -4.116615,20.0197 -3.02018,12.02344 -3.04951,24.52226 -5.25959,36.78036 -2.73013,15.141875 -7.71736,28.576485 -7.71736,44.229555"
     id="path370"
     sodipodi:nodetypes="cscccccccccccccccccccccccccccccccc" />
</svg>
