<svg width="32" height="32" viewBox="0 0 32 32" fill="none" xmlns="http://www.w3.org/2000/svg">
<mask id="mask0_467_1406" style="mask-type:alpha" maskUnits="userSpaceOnUse" x="0" y="0" width="32" height="32">
<rect width="32" height="32" fill="#D9D9D9"/>
</mask>
<g mask="url(#mask0_467_1406)">
<path d="M13.7651 28L13.2318 24.2C12.7429 24.0444 12.204 23.8 11.6151 23.4667C11.0262 23.1333 10.5318 22.7778 10.1318 22.4L6.59844 24L4.39844 20.0667L7.53177 17.7333C7.48733 17.4667 7.44844 17.1833 7.4151 16.8833C7.38177 16.5833 7.3651 16.3 7.3651 16.0333C7.3651 15.7667 7.38177 15.4889 7.4151 15.2C7.44844 14.9111 7.48733 14.6 7.53177 14.2667L4.39844 11.9333L6.59844 8.03333L10.0984 9.6C10.5651 9.22222 11.0762 8.87222 11.6318 8.55C12.1873 8.22778 12.7095 7.98889 13.1984 7.83333L13.7651 4H18.2318L18.7651 7.83333C19.3207 8.05556 19.8484 8.30556 20.3484 8.58333C20.8484 8.86111 21.3318 9.2 21.7984 9.6L25.3984 8.03333L27.5984 11.9333L24.3651 14.3C24.454 14.6111 24.5095 14.9056 24.5318 15.1833C24.554 15.4611 24.5651 15.7333 24.5651 16C24.5651 16.2444 24.5484 16.5056 24.5151 16.7833C24.4818 17.0611 24.4318 17.3667 24.3651 17.7L27.5984 20.0667L25.3651 24L21.7984 22.4C21.3095 22.8 20.8151 23.1556 20.3151 23.4667C19.8151 23.7778 19.2984 24.0111 18.7651 24.1667L18.2318 28H13.7651ZM15.9318 19.1667C16.8207 19.1667 17.5707 18.8611 18.1818 18.25C18.7929 17.6389 19.0984 16.8889 19.0984 16C19.0984 15.1111 18.7929 14.3611 18.1818 13.75C17.5707 13.1389 16.8207 12.8333 15.9318 12.8333C15.0429 12.8333 14.2873 13.1389 13.6651 13.75C13.0429 14.3611 12.7318 15.1111 12.7318 16C12.7318 16.8889 13.0429 17.6389 13.6651 18.25C14.2873 18.8611 15.0429 19.1667 15.9318 19.1667Z" fill="#121212"/>
</g>
</svg>
