<svg width="40" height="40" viewBox="0 0 40 40" fill="none" xmlns="http://www.w3.org/2000/svg">
<path fill-rule="evenodd" clip-rule="evenodd" d="M0.765806 12.4697C5.3185 11.1389 14.901 9 24.3289 9C37.159 9 40 12.4225 40 20.7885C40 28.6791 40 30.9608 34.6414 30.9608H6.91656C1.96779 30.9608 -1.1481 19.6477 12.6901 19.6477H32.027C36.5175 19.6477 36.6092 13.3731 32.4852 12.2323C28.4499 11.116 16.0789 10.5459 1.38217 14.6189C0.833908 14.7709 0.260099 14.4671 0.0661623 13.9138C-0.145839 13.309 0.168707 12.6443 0.765806 12.4697ZM38.1239 25.732L4.94877 25.732V26.3024C4.94877 27.8776 6.17968 29.1545 7.69809 29.1545L35.3745 29.1545C36.8929 29.1545 38.1239 27.8776 38.1239 26.3024V25.732Z" fill="#121212"/>
</svg>
